<svg width="211" height="114" viewBox="0 0 211 114" fill="none" xmlns="http://www.w3.org/2000/svg">
<path d="M11.9199 53.4688C4.55664 53.4688 0.875 48.1953 0.875 37.6484V15.4121C0.875 5.7832 5.09375 0.96875 13.5312 0.96875C17.0078 0.96875 19.6738 1.67188 21.5293 3.07812C23.3848 4.46484 24.6641 6.49609 25.3672 9.17188C26.0703 11.8477 26.4219 15.1094 26.4219 18.957H16.3438V14.3867C16.3438 13.2734 16.1875 12.3457 15.875 11.6035C15.582 10.8418 14.957 10.4609 14 10.4609C12.8086 10.4609 12.0176 10.8613 11.627 11.6621C11.2559 12.4629 11.0703 13.3418 11.0703 14.2988V39.2891C11.0703 40.6758 11.2461 41.8086 11.5977 42.6875C11.9688 43.5469 12.6816 43.9766 13.7363 43.9766C14.8301 43.9766 15.5527 43.5469 15.9043 42.6875C16.2754 41.8086 16.4609 40.6562 16.4609 39.2305V31.877H13.707V22.9707H26.3047V53H22.1738L20.416 48.6641C18.6191 51.8672 15.7871 53.4688 11.9199 53.4688ZM29 53L33.9805 7.29688H51.4707L56.3633 53H46.6074L45.9336 44.6797H39.6055L39.0195 53H29ZM42.3594 15.5L40.4551 36.4473H44.9668L42.8281 15.5H42.3594ZM59.5273 53V7.29688H70.1328L75.4648 32.082V7.29688H84.8398V53H74.7617L69.0195 28.2441V53H59.5273ZM89.4102 53V7.29688H110.035V17.2578H99.8984V24.8164H109.625V34.5137H99.8984V42.9512H110.709V53H89.4102ZM126.383 53.4688C121.676 53.4688 118.277 52.2969 116.188 49.9531C114.117 47.6094 113.082 43.8789 113.082 38.7617V37.0918H123.277V40.168C123.277 41.3594 123.453 42.2969 123.805 42.9805C124.176 43.6445 124.811 43.9766 125.709 43.9766C126.646 43.9766 127.291 43.7324 127.643 43.2441C128.014 42.7363 128.199 42.0039 128.199 41.0469C128.199 39.7773 127.77 38.7031 126.91 37.8242C126.07 36.9453 124.674 35.7539 122.721 34.25L118.268 30.793C116.373 29.3281 115.035 27.707 114.254 25.9297C113.473 24.1523 113.082 21.9941 113.082 19.4551C113.082 15.4902 114.098 12.3945 116.129 10.168C118.18 7.94141 121.139 6.82812 125.006 6.82812C129.732 6.82812 133.082 8.05859 135.055 10.5195C137.047 12.9805 138.043 16.5938 138.043 21.3594H127.584V18.8398C127.584 17.1602 126.803 16.3203 125.24 16.3203C124.459 16.3203 123.883 16.5547 123.512 17.0234C123.141 17.4727 122.955 18.0586 122.955 18.7812C122.955 19.5039 123.121 20.1875 123.453 20.832C123.805 21.457 124.605 22.2773 125.855 23.293L131.803 28.127C133.971 29.8848 135.611 31.7305 136.725 33.6641C137.838 35.5977 138.395 38.1074 138.395 41.1934C138.395 43.3418 138.004 45.3535 137.223 47.2285C136.461 49.1035 135.201 50.6172 133.443 51.7695C131.686 52.9023 129.332 53.4688 126.383 53.4688ZM141.852 53V7.29688H152.105V23.5273H156.969V7.29688H167.223V53H156.969V33.2832H152.105V53H141.852ZM170.387 53L175.367 7.29688H192.857L197.75 53H187.994L187.32 44.6797H180.992L180.406 53H170.387ZM183.746 15.5L181.842 36.4473H186.354L184.215 15.5H183.746Z" fill="white"/>
<path d="M78.0338 113.28C74.1404 113.28 70.5404 112.587 67.2338 111.2C63.9271 109.76 61.0738 107.76 58.6738 105.2C56.2738 102.64 54.4071 99.6267 53.0738 96.16C51.7404 92.64 51.0738 88.8267 51.0738 84.72C51.0738 80.6133 51.7404 76.8267 53.0738 73.36C54.4071 69.8933 56.2738 66.9067 58.6738 64.4C61.0738 61.84 63.9271 59.8667 67.2338 58.48C70.5404 57.04 74.1404 56.32 78.0338 56.32C81.9271 56.32 85.5004 57.04 88.7538 58.48C92.0604 59.8667 94.9138 61.84 97.3138 64.4C99.7671 66.9067 101.66 69.8933 102.994 73.36C104.327 76.8267 104.994 80.6133 104.994 84.72C104.994 88.8267 104.327 92.64 102.994 96.16C101.66 99.6267 99.7671 102.64 97.3138 105.2C94.9138 107.76 92.0604 109.76 88.7538 111.2C85.5004 112.587 81.9271 113.28 78.0338 113.28ZM78.0338 100.32C80.6471 100.32 82.8871 99.68 84.7538 98.4C86.6204 97.0667 88.0604 95.2267 89.0738 92.88C90.1404 90.5333 90.6738 87.8133 90.6738 84.72C90.6738 81.6267 90.1404 78.9333 89.0738 76.64C88.0604 74.3467 86.6204 72.56 84.7538 71.28C82.8871 69.9467 80.6471 69.28 78.0338 69.28C75.4738 69.28 73.2338 69.92 71.3138 71.2C69.4471 72.48 67.9804 74.2933 66.9138 76.64C65.9004 78.9333 65.3938 81.6267 65.3938 84.72C65.3938 87.8133 65.9004 90.5333 66.9138 92.88C67.9804 95.2267 69.4471 97.0667 71.3138 98.4C73.2338 99.68 75.4738 100.32 78.0338 100.32ZM106.518 57.6C109.131 57.6 111.745 57.6 114.358 57.6C117.025 57.6 119.665 57.6 122.278 57.6C123.771 60.1067 125.265 62.6667 126.758 65.28C128.251 67.84 129.745 70.3733 131.238 72.88C132.731 70.3733 134.225 67.84 135.718 65.28C137.211 62.6667 138.705 60.1067 140.198 57.6C142.758 57.6 145.345 57.6 147.958 57.6C150.571 57.6 153.158 57.6 155.718 57.6C153.105 61.92 150.465 66.2933 147.798 70.72C145.185 75.1467 142.571 79.52 139.958 83.84C142.678 88.48 145.425 93.1733 148.198 97.92C151.025 102.667 153.798 107.36 156.518 112C153.905 112 151.265 112 148.598 112C145.985 112 143.371 112 140.758 112C139.158 109.173 137.531 106.347 135.878 103.52C134.225 100.64 132.598 97.8133 130.998 95.04C129.345 97.8133 127.665 100.64 125.958 103.52C124.305 106.347 122.651 109.173 120.998 112C118.438 112 115.851 112 113.238 112C110.625 112 108.038 112 105.478 112C108.251 107.413 111.025 102.773 113.798 98.08C116.625 93.3333 119.425 88.6667 122.198 84.08C119.585 79.7067 116.971 75.3067 114.358 70.88C111.745 66.4 109.131 61.9733 106.518 57.6ZM183.971 113.28C180.078 113.28 176.478 112.587 173.171 111.2C169.865 109.76 167.011 107.76 164.611 105.2C162.211 102.64 160.345 99.6267 159.011 96.16C157.678 92.64 157.011 88.8267 157.011 84.72C157.011 80.6133 157.678 76.8267 159.011 73.36C160.345 69.8933 162.211 66.9067 164.611 64.4C167.011 61.84 169.865 59.8667 173.171 58.48C176.478 57.04 180.078 56.32 183.971 56.32C187.865 56.32 191.438 57.04 194.691 58.48C197.998 59.8667 200.851 61.84 203.251 64.4C205.705 66.9067 207.598 69.8933 208.931 73.36C210.265 76.8267 210.931 80.6133 210.931 84.72C210.931 88.8267 210.265 92.64 208.931 96.16C207.598 99.6267 205.705 102.64 203.251 105.2C200.851 107.76 197.998 109.76 194.691 111.2C191.438 112.587 187.865 113.28 183.971 113.28ZM183.971 100.32C186.585 100.32 188.825 99.68 190.691 98.4C192.558 97.0667 193.998 95.2267 195.011 92.88C196.078 90.5333 196.611 87.8133 196.611 84.72C196.611 81.6267 196.078 78.9333 195.011 76.64C193.998 74.3467 192.558 72.56 190.691 71.28C188.825 69.9467 186.585 69.28 183.971 69.28C181.411 69.28 179.171 69.92 177.251 71.2C175.385 72.48 173.918 74.2933 172.851 76.64C171.838 78.9333 171.331 81.6267 171.331 84.72C171.331 87.8133 171.838 90.5333 172.851 92.88C173.918 95.2267 175.385 97.0667 177.251 98.4C179.171 99.68 181.411 100.32 183.971 100.32Z" fill="url(#paint0_linear_19_19)"/>
<defs>
<linearGradient id="paint0_linear_19_19" x1="114.5" y1="33" x2="114.5" y2="134" gradientUnits="userSpaceOnUse">
<stop stop-color="white"/>
<stop offset="1" stop-color="#999999"/>
</linearGradient>
</defs>
</svg>
