<svg width="278" height="315" viewBox="0 0 278 315" fill="none" xmlns="http://www.w3.org/2000/svg">
<rect x="0.5" y="0.5" width="104" height="112" rx="24.5" fill="black" stroke="#D2D2D2"/>
<path d="M51.8 92.6C46.9333 92.6 42.4333 91.7333 38.3 90C34.1667 88.2 30.6 85.7 27.6 82.5C24.6 79.3 22.2667 75.5333 20.6 71.2C18.9333 66.8 18.1 62.0333 18.1 56.9C18.1 51.7667 18.9333 47.0333 20.6 42.7C22.2667 38.3667 24.6 34.6333 27.6 31.5C30.6 28.3 34.1667 25.8333 38.3 24.1C42.4333 22.3 46.9333 21.4 51.8 21.4C56.6667 21.4 61.1333 22.3 65.2 24.1C69.3333 25.8333 72.9 28.3 75.9 31.5C78.9667 34.6333 81.3333 38.3667 83 42.7C84.6667 47.0333 85.5 51.7667 85.5 56.9C85.5 62.0333 84.6667 66.8 83 71.2C81.3333 75.5333 78.9667 79.3 75.9 82.5C72.9 85.7 69.3333 88.2 65.2 90C61.1333 91.7333 56.6667 92.6 51.8 92.6ZM51.8 76.4C55.0667 76.4 57.8667 75.6 60.2 74C62.5333 72.3333 64.3333 70.0333 65.6 67.1C66.9333 64.1667 67.6 60.7667 67.6 56.9C67.6 53.0333 66.9333 49.6667 65.6 46.8C64.3333 43.9333 62.5333 41.7 60.2 40.1C57.8667 38.4333 55.0667 37.6 51.8 37.6C48.6 37.6 45.8 38.4 43.4 40C41.0667 41.6 39.2333 43.8667 37.9 46.8C36.6333 49.6667 36 53.0333 36 56.9C36 60.7667 36.6333 64.1667 37.9 67.1C39.2333 70.0333 41.0667 72.3333 43.4 74C45.8 75.6 48.6 76.4 51.8 76.4Z" fill="white"/>
<rect x="173.5" y="202.5" width="104" height="112" rx="24.5" fill="black" stroke="#D2D2D2"/>
<path d="M224.8 294.6C219.933 294.6 215.433 293.733 211.3 292C207.167 290.2 203.6 287.7 200.6 284.5C197.6 281.3 195.267 277.533 193.6 273.2C191.933 268.8 191.1 264.033 191.1 258.9C191.1 253.767 191.933 249.033 193.6 244.7C195.267 240.367 197.6 236.633 200.6 233.5C203.6 230.3 207.167 227.833 211.3 226.1C215.433 224.3 219.933 223.4 224.8 223.4C229.667 223.4 234.133 224.3 238.2 226.1C242.333 227.833 245.9 230.3 248.9 233.5C251.967 236.633 254.333 240.367 256 244.7C257.667 249.033 258.5 253.767 258.5 258.9C258.5 264.033 257.667 268.8 256 273.2C254.333 277.533 251.967 281.3 248.9 284.5C245.9 287.7 242.333 290.2 238.2 292C234.133 293.733 229.667 294.6 224.8 294.6ZM224.8 278.4C228.067 278.4 230.867 277.6 233.2 276C235.533 274.333 237.333 272.033 238.6 269.1C239.933 266.167 240.6 262.767 240.6 258.9C240.6 255.033 239.933 251.667 238.6 248.8C237.333 245.933 235.533 243.7 233.2 242.1C230.867 240.433 228.067 239.6 224.8 239.6C221.6 239.6 218.8 240.4 216.4 242C214.067 243.6 212.233 245.867 210.9 248.8C209.633 251.667 209 255.033 209 258.9C209 262.767 209.633 266.167 210.9 269.1C212.233 272.033 214.067 274.333 216.4 276C218.8 277.6 221.6 278.4 224.8 278.4Z" fill="white"/>
<rect x="86.5" y="101.5" width="104" height="112" rx="24.5" fill="black" stroke="#D2D2D2"/>
<path d="M102.8 124C106.067 124 109.333 124 112.6 124C115.933 124 119.233 124 122.5 124C124.367 127.133 126.233 130.333 128.1 133.6C129.967 136.8 131.833 139.967 133.7 143.1C135.567 139.967 137.433 136.8 139.3 133.6C141.167 130.333 143.033 127.133 144.9 124C148.1 124 151.333 124 154.6 124C157.867 124 161.1 124 164.3 124C161.033 129.4 157.733 134.867 154.4 140.4C151.133 145.933 147.867 151.4 144.6 156.8C148 162.6 151.433 168.467 154.9 174.4C158.433 180.333 161.9 186.2 165.3 192C162.033 192 158.733 192 155.4 192C152.133 192 148.867 192 145.6 192C143.6 188.467 141.567 184.933 139.5 181.4C137.433 177.8 135.4 174.267 133.4 170.8C131.333 174.267 129.233 177.8 127.1 181.4C125.033 184.933 122.967 188.467 120.9 192C117.7 192 114.467 192 111.2 192C107.933 192 104.7 192 101.5 192C104.967 186.267 108.433 180.467 111.9 174.6C115.433 168.667 118.933 162.833 122.4 157.1C119.133 151.633 115.867 146.133 112.6 140.6C109.333 135 106.067 129.467 102.8 124Z" fill="white"/>
</svg>
